<svg width="360" height="46" viewBox="0 0 360 46" fill="none" xmlns="http://www.w3.org/2000/svg">
    <path fill-rule="evenodd" clip-rule="evenodd" d="M23 0C10.2979 0 0 10.2979 0 23C0 35.6942 10.3058 46 23 46C35.7024 46 46 35.7024 46 23H34.488C34.488 29.3449 29.3449 34.488 23.0003 34.488C16.6594 34.488 11.512 29.3406 11.512 23.0003C11.512 16.6554 16.6554 11.512 23 11.512V0Z" fill="#4A6CF7"/>
    <path opacity="0.5" fill-rule="evenodd" clip-rule="evenodd" d="M45.9997 0H27V6.33353C27 7.99708 27.3279 9.64431 27.9648 11.1811C28.6016 12.7179 29.5351 14.1142 30.7118 15.2901C31.8875 16.4662 33.2835 17.3992 34.8198 18.0357C36.3562 18.6723 38.0029 19 39.666 19H46L45.9997 0Z" fill="#4A6CF7"/>
    <path d="M61.5391 36V6.89844H72.9844C75.1979 6.89844 77.0794 7.32161 78.6289 8.16797C80.1914 9.01432 81.3828 10.1797 82.2031 11.6641C83.0234 13.1484 83.4336 14.8542 83.4336 16.7812C83.4336 18.7083 83.0169 20.4076 82.1836 21.8789C81.3503 23.3503 80.1458 24.5026 78.5703 25.3359C76.9948 26.1562 75.0872 26.5664 72.8477 26.5664H67.6719V36H61.5391ZM67.6719 21.6445H71.832C73.6159 21.6445 74.9375 21.1953 75.7969 20.2969C76.6693 19.3854 77.1055 18.2135 77.1055 16.7812C77.1055 15.3229 76.6693 14.151 75.7969 13.2656C74.9245 12.3802 73.5964 11.9375 71.8125 11.9375H67.6719V21.6445ZM101.305 26.7227V14.1641H107.359V36H101.539V32.0352H101.305C100.823 33.3112 100.009 34.3398 98.8633 35.1211C97.7305 35.9023 96.3438 36.2865 94.7031 36.2734C92.5026 36.2865 90.7188 35.5638 89.3516 34.1055C87.9974 32.6341 87.3203 30.6224 87.3203 28.0703V14.1641H93.375V27.0156C93.375 28.2917 93.7201 29.3073 94.4102 30.0625C95.1003 30.8047 96.0182 31.1693 97.1641 31.1562C98.2448 31.1693 99.2018 30.7982 100.035 30.043C100.882 29.2878 101.305 28.181 101.305 26.7227ZM124.605 36.3516C123.434 36.3516 122.438 36.1562 121.617 35.7656C120.81 35.375 120.146 34.8867 119.625 34.3008C119.117 33.7018 118.72 33.1029 118.434 32.5039H118.16V36H112.203V6.89844H118.258V17.8555H118.434C118.707 17.2565 119.091 16.651 119.586 16.0391C120.094 15.4271 120.758 14.9193 121.578 14.5156C122.411 14.099 123.434 13.8906 124.645 13.8906C126.246 13.8906 127.711 14.3073 129.039 15.1406C130.38 15.9609 131.454 17.2044 132.262 18.8711C133.069 20.5378 133.473 22.6211 133.473 25.1211C133.473 27.543 133.082 29.5938 132.301 31.2734C131.52 32.9401 130.458 34.2031 129.117 35.0625C127.776 35.9219 126.272 36.3516 124.605 36.3516ZM118.121 25.1016C118.121 27.0286 118.518 28.5846 119.312 29.7695C120.12 30.9544 121.253 31.5469 122.711 31.5469C124.195 31.5469 125.328 30.9479 126.109 29.75C126.891 28.5391 127.281 26.9896 127.281 25.1016C127.281 23.2005 126.891 21.6576 126.109 20.4727C125.341 19.2878 124.208 18.6953 122.711 18.6953C121.253 18.6953 120.12 19.2747 119.312 20.4336C118.518 21.5924 118.121 23.1484 118.121 25.1016ZM143.492 6.89844V36H137.438V6.89844H143.492ZM148.336 36V14.1641H154.391V36H148.336ZM151.363 11.3711C150.465 11.3711 149.69 11.0716 149.039 10.4727C148.401 9.8737 148.082 9.15104 148.082 8.30469C148.082 7.45833 148.401 6.74219 149.039 6.15625C149.69 5.55729 150.465 5.25781 151.363 5.25781C152.262 5.25781 153.03 5.55729 153.668 6.15625C154.319 6.74219 154.645 7.45833 154.645 8.30469C154.645 9.15104 154.319 9.8737 153.668 10.4727C153.03 11.0716 152.262 11.3711 151.363 11.3711ZM169.078 36.4297C166.839 36.4297 164.918 35.9544 163.316 35.0039C161.715 34.0534 160.484 32.7318 159.625 31.0391C158.779 29.3464 158.355 27.3932 158.355 25.1797C158.355 22.9401 158.785 20.974 159.645 19.2812C160.517 17.5885 161.754 16.2669 163.355 15.3164C164.957 14.3659 166.858 13.8906 169.059 13.8906C170.96 13.8906 172.626 14.2357 174.059 14.9258C175.491 15.6159 176.624 16.5859 177.457 17.8359C178.29 19.0859 178.746 20.5573 178.824 22.25H173.121C172.952 21.1693 172.529 20.2969 171.852 19.6328C171.174 18.9557 170.276 18.6172 169.156 18.6172C167.75 18.6172 166.624 19.1836 165.777 20.3164C164.931 21.4362 164.508 23.0312 164.508 25.1016C164.508 27.1849 164.924 28.806 165.758 29.9648C166.604 31.1237 167.737 31.7031 169.156 31.7031C170.198 31.7031 171.077 31.3776 171.793 30.7266C172.509 30.0755 172.952 29.1641 173.121 27.9922H178.824C178.733 29.6589 178.284 31.1302 177.477 32.4062C176.669 33.6693 175.549 34.6589 174.117 35.375C172.698 36.0781 171.018 36.4297 169.078 36.4297ZM202.945 36.4102C199.417 36.4102 196.598 35.6029 194.488 33.9883C192.392 32.3737 191.298 29.9974 191.207 26.8594H197.164C197.268 28.3177 197.841 29.418 198.883 30.1602C199.938 30.8893 201.266 31.2539 202.867 31.2539C204.43 31.2539 205.68 30.9219 206.617 30.2578C207.568 29.5938 208.043 28.7279 208.043 27.6602C208.043 26.6836 207.613 25.9349 206.754 25.4141C205.895 24.8802 204.671 24.4245 203.082 24.0469L199.898 23.2656C197.451 22.6797 195.517 21.7487 194.098 20.4727C192.691 19.1836 191.988 17.4648 191.988 15.3164C191.988 13.5586 192.464 12.0221 193.414 10.707C194.365 9.37891 195.667 8.35026 197.32 7.62109C198.987 6.87891 200.882 6.50781 203.004 6.50781C205.165 6.50781 207.053 6.87891 208.668 7.62109C210.283 8.36328 211.539 9.39193 212.438 10.707C213.349 12.0221 213.818 13.5391 213.844 15.2578H207.906C207.802 14.125 207.32 13.2396 206.461 12.6016C205.602 11.9635 204.436 11.6445 202.965 11.6445C201.467 11.6445 200.315 11.957 199.508 12.582C198.701 13.194 198.297 13.9753 198.297 14.9258C198.297 15.9544 198.746 16.7357 199.645 17.2695C200.543 17.7904 201.624 18.2005 202.887 18.5L205.484 19.1445C207.177 19.5221 208.681 20.0755 209.996 20.8047C211.311 21.5208 212.346 22.4453 213.102 23.5781C213.857 24.6979 214.234 26.0651 214.234 27.6797C214.234 30.349 213.238 32.4714 211.246 34.0469C209.254 35.6224 206.487 36.4102 202.945 36.4102ZM218.258 44.1641V14.1641H224.215V17.8555H224.488C224.762 17.2565 225.146 16.651 225.641 16.0391C226.148 15.4271 226.812 14.9193 227.633 14.5156C228.466 14.099 229.488 13.8906 230.699 13.8906C232.301 13.8906 233.766 14.3073 235.094 15.1406C236.435 15.9609 237.509 17.2044 238.316 18.8711C239.124 20.5378 239.527 22.6211 239.527 25.1211C239.527 27.543 239.137 29.5938 238.355 31.2734C237.574 32.9401 236.513 34.2031 235.172 35.0625C233.831 35.9219 232.327 36.3516 230.66 36.3516C229.488 36.3516 228.492 36.1562 227.672 35.7656C226.865 35.375 226.201 34.8867 225.68 34.3008C225.172 33.7018 224.775 33.1029 224.488 32.5039H224.312V44.1641H218.258ZM224.176 25.1016C224.176 27.0286 224.573 28.5846 225.367 29.7695C226.174 30.9544 227.307 31.5469 228.766 31.5469C230.25 31.5469 231.383 30.9479 232.164 29.75C232.945 28.5391 233.336 26.9896 233.336 25.1016C233.336 23.2005 232.945 21.6576 232.164 20.4727C231.396 19.2878 230.263 18.6953 228.766 18.6953C227.307 18.6953 226.174 19.2747 225.367 20.4336C224.573 21.5924 224.176 23.1484 224.176 25.1016ZM249.723 36.4102C247.639 36.4102 245.908 35.8698 244.527 34.7891C243.16 33.6953 242.477 32.0677 242.477 29.9062C242.477 28.2786 242.854 27.0026 243.609 26.0781C244.378 25.1406 245.387 24.457 246.637 24.0273C247.887 23.5846 249.228 23.2982 250.66 23.168C252.561 22.9857 253.915 22.7969 254.723 22.6016C255.543 22.3932 255.953 21.9375 255.953 21.2344V21.1367C255.953 20.2383 255.667 19.5417 255.094 19.0469C254.521 18.5521 253.694 18.3047 252.613 18.3047C251.533 18.3047 250.647 18.5391 249.957 19.0078C249.28 19.4766 248.831 20.0755 248.609 20.8047L243.102 19.9258C243.622 18.0247 244.716 16.5469 246.383 15.4922C248.062 14.4245 250.146 13.8906 252.633 13.8906C254.247 13.8906 255.764 14.1445 257.184 14.6523C258.616 15.1602 259.775 15.9609 260.66 17.0547C261.546 18.1354 261.988 19.5417 261.988 21.2734V36H256.266V32.9531H256.09C255.556 33.9818 254.762 34.8151 253.707 35.4531C252.665 36.0911 251.337 36.4102 249.723 36.4102ZM248.238 29.7109C248.238 30.5443 248.538 31.1758 249.137 31.6055C249.749 32.0221 250.517 32.2305 251.441 32.2305C252.77 32.2305 253.857 31.8464 254.703 31.0781C255.562 30.3099 255.992 29.3529 255.992 28.207V25.8828C255.758 26.0391 255.387 26.1823 254.879 26.3125C254.384 26.4427 253.857 26.5534 253.297 26.6445C252.737 26.7227 252.236 26.7943 251.793 26.8594C250.725 27.0156 249.866 27.3216 249.215 27.7773C248.564 28.2201 248.238 28.8646 248.238 29.7109ZM276.695 36.4297C274.456 36.4297 272.535 35.9544 270.934 35.0039C269.332 34.0534 268.102 32.7318 267.242 31.0391C266.396 29.3464 265.973 27.3932 265.973 25.1797C265.973 22.9401 266.402 20.974 267.262 19.2812C268.134 17.5885 269.371 16.2669 270.973 15.3164C272.574 14.3659 274.475 13.8906 276.676 13.8906C278.577 13.8906 280.243 14.2357 281.676 14.9258C283.108 15.6159 284.241 16.5859 285.074 17.8359C285.908 19.0859 286.363 20.5573 286.441 22.25H280.738C280.569 21.1693 280.146 20.2969 279.469 19.6328C278.792 18.9557 277.893 18.6172 276.773 18.6172C275.367 18.6172 274.241 19.1836 273.395 20.3164C272.548 21.4362 272.125 23.0312 272.125 25.1016C272.125 27.1849 272.542 28.806 273.375 29.9648C274.221 31.1237 275.354 31.7031 276.773 31.7031C277.815 31.7031 278.694 31.3776 279.41 30.7266C280.126 30.0755 280.569 29.1641 280.738 27.9922H286.441C286.35 29.6589 285.901 31.1302 285.094 32.4062C284.286 33.6693 283.167 34.6589 281.734 35.375C280.315 36.0781 278.635 36.4297 276.695 36.4297ZM300.309 36.4297C298.069 36.4297 296.142 35.974 294.527 35.0625C292.913 34.151 291.669 32.8555 290.797 31.1758C289.924 29.4831 289.488 27.4844 289.488 25.1797C289.488 22.9401 289.918 20.974 290.777 19.2812C291.65 17.5885 292.874 16.2669 294.449 15.3164C296.025 14.3659 297.88 13.8906 300.016 13.8906C301.943 13.8906 303.681 14.3008 305.23 15.1211C306.793 15.9414 308.03 17.1719 308.941 18.8125C309.866 20.4531 310.328 22.5104 310.328 24.9844V26.625H295.445C295.51 28.2786 295.992 29.5742 296.891 30.5117C297.789 31.4492 298.961 31.918 300.406 31.918C301.409 31.918 302.268 31.7031 302.984 31.2734C303.714 30.8438 304.234 30.2188 304.547 29.3984L310.133 29.7695C309.703 31.7747 308.629 33.3893 306.91 34.6133C305.204 35.8242 303.004 36.4297 300.309 36.4297ZM295.484 22.8945H304.527C304.384 21.5143 303.941 20.4206 303.199 19.6133C302.457 18.806 301.415 18.4023 300.074 18.4023C298.72 18.4023 297.646 18.8255 296.852 19.6719C296.07 20.5052 295.615 21.5794 295.484 22.8945ZM328.727 36H322.125L332.184 6.89844H340.094L350.133 36H343.551L341.383 29.3594H330.875L328.727 36ZM332.438 24.5547H339.82L336.246 13.5391H336.012L332.438 24.5547ZM353.492 36V14.1641H359.547V36H353.492ZM356.52 11.3711C355.621 11.3711 354.846 11.0716 354.195 10.4727C353.557 9.8737 353.238 9.15104 353.238 8.30469C353.238 7.45833 353.557 6.74219 354.195 6.15625C354.846 5.55729 355.621 5.25781 356.52 5.25781C357.418 5.25781 358.186 5.55729 358.824 6.15625C359.475 6.74219 359.801 7.45833 359.801 8.30469C359.801 9.15104 359.475 9.8737 358.824 10.4727C358.186 11.0716 357.418 11.3711 356.52 11.3711Z" fill="white"/>
    </svg>
    