<svg width="270" height="65" viewBox="0 0 270 65" fill="none" xmlns="http://www.w3.org/2000/svg">
    <path fill-rule="evenodd" clip-rule="evenodd" d="M32.5 0C14.5513 0 0 14.5513 0 32.5C0 50.4374 14.5626 65 32.5 65C50.4491 65 65 50.4491 65 32.5H48.7331C48.7331 41.4657 41.4657 48.7331 32.5004 48.7331C23.5404 48.7331 16.2669 41.4596 16.2669 32.5004C16.2669 23.5348 23.5348 16.2669 32.5 16.2669V0Z" fill="#4A6CF7"/>
    <path opacity="0.5" fill-rule="evenodd" clip-rule="evenodd" d="M64.9996 0H38V9.33363C38.0001 11.7852 38.4659 14.2127 39.371 16.4774C40.276 18.7422 41.6025 20.7998 43.2747 22.5328C44.9454 24.266 46.9291 25.6409 49.1124 26.579C51.2957 27.5171 53.6357 27.9999 55.999 28H65L64.9996 0Z" fill="#4A6CF7"/>
    <path d="M82.4434 55V4.07227H102.473C106.346 4.07227 109.639 4.81283 112.351 6.29395C115.085 7.77507 117.17 9.81445 118.605 12.4121C120.041 15.0098 120.759 17.9948 120.759 21.3672C120.759 24.7396 120.03 27.7132 118.571 30.2881C117.113 32.863 115.005 34.8796 112.248 36.3379C109.491 37.7734 106.153 38.4912 102.233 38.4912H93.1758V55H82.4434ZM93.1758 29.8779H100.456C103.578 29.8779 105.891 29.0918 107.395 27.5195C108.921 25.9245 109.685 23.8737 109.685 21.3672C109.685 18.8151 108.921 16.7643 107.395 15.2148C105.868 13.6654 103.544 12.8906 100.422 12.8906H93.1758V29.8779ZM146.633 55.7178C140.458 55.7178 135.524 54.305 131.833 51.4795C128.164 48.654 126.25 44.4954 126.091 39.0039H136.516C136.698 41.556 137.701 43.4814 139.523 44.7803C141.369 46.0563 143.693 46.6943 146.496 46.6943C149.23 46.6943 151.418 46.1133 153.059 44.9512C154.722 43.7891 155.554 42.2738 155.554 40.4053C155.554 38.6963 154.802 37.3861 153.298 36.4746C151.794 35.5404 149.652 34.7428 146.872 34.082L141.301 32.7148C137.017 31.6895 133.633 30.0602 131.149 27.8271C128.688 25.5713 127.458 22.5635 127.458 18.8037C127.458 15.7275 128.29 13.0387 129.953 10.7373C131.617 8.41309 133.895 6.61296 136.789 5.33691C139.706 4.03809 143.021 3.38867 146.735 3.38867C150.518 3.38867 153.822 4.03809 156.647 5.33691C159.473 6.63574 161.672 8.43587 163.244 10.7373C164.839 13.0387 165.66 15.6934 165.705 18.7012H155.314C155.132 16.7188 154.289 15.1693 152.785 14.0527C151.281 12.9362 149.242 12.3779 146.667 12.3779C144.047 12.3779 142.03 12.9248 140.617 14.0186C139.204 15.0895 138.498 16.4567 138.498 18.1201C138.498 19.9202 139.284 21.2874 140.856 22.2217C142.429 23.1331 144.32 23.8509 146.53 24.375L151.076 25.5029C154.038 26.1637 156.67 27.1322 158.972 28.4082C161.273 29.6615 163.085 31.2793 164.406 33.2617C165.728 35.2214 166.389 37.6139 166.389 40.4395C166.389 45.1107 164.646 48.8249 161.159 51.582C157.673 54.3392 152.831 55.7178 146.633 55.7178ZM197.185 29.9121V38.3203H173.977V29.9121H197.185ZM215.197 55H203.645L221.247 4.07227H235.09L252.658 55H241.14L237.346 43.3789H218.957L215.197 55ZM221.691 34.9707H234.611L228.356 15.6934H227.946L221.691 34.9707ZM258.537 55V16.7871H269.133V55H258.537ZM263.835 11.8994C262.263 11.8994 260.907 11.3753 259.768 10.3271C258.651 9.27897 258.093 8.01432 258.093 6.5332C258.093 5.05208 258.651 3.79883 259.768 2.77344C260.907 1.72526 262.263 1.20117 263.835 1.20117C265.407 1.20117 266.752 1.72526 267.868 2.77344C269.007 3.79883 269.577 5.05208 269.577 6.5332C269.577 8.01432 269.007 9.27897 267.868 10.3271C266.752 11.3753 265.407 11.8994 263.835 11.8994Z" fill="white"/>
    </svg>
    